<?xml version="1.0" standalone="no"?>
<!DOCTYPE svg PUBLIC "-//W3C//DTD SVG 20010904//EN"
 "http://www.w3.org/TR/2001/REC-SVG-20010904/DTD/svg10.dtd">
<svg version="1.0" xmlns="http://www.w3.org/2000/svg"
 width="300.000000pt" height="256.000000pt" viewBox="0 0 300.000000 256.000000"
 preserveAspectRatio="xMidYMid meet">
<metadata>
Created by potrace 1.10, written by Peter Selinger 2001-2011
</metadata>
<g transform="translate(0.000000,256.000000) scale(0.100000,-0.100000)"
fill="#000000" stroke="none">
<path d="M800 2538 c14 -13 33 -31 43 -42 9 -10 17 -14 17 -9 0 15 -58 73 -72
73 -7 0 -1 -10 12 -22z"/>
<path d="M861 2553 c0 -5 4 -17 9 -28 8 -19 9 -19 9 2 1 38 31 16 31 -23 0
-25 4 -32 15 -28 12 5 12 0 5 -28 -6 -18 -10 -34 -10 -35 0 -2 -4 -3 -9 -3 -5
0 -12 16 -16 36 -3 20 -8 34 -10 32 -6 -6 18 -118 25 -118 3 0 12 17 19 38 8
20 28 60 46 87 17 28 35 56 39 63 5 9 -12 12 -73 12 -45 0 -81 -3 -80 -7z"/>
<path d="M1022 2482 c-73 -113 -82 -141 -82 -243 0 -49 3 -89 8 -89 4 1 18 7
32 16 21 12 22 14 4 9 -18 -4 -23 0 -27 22 -12 58 -1 149 21 184 12 19 27 45
34 59 6 14 27 46 46 73 18 26 29 47 24 47 -6 0 -33 -35 -60 -78z"/>
<path d="M1166 2549 c4 -7 22 -9 47 -6 l40 5 -42 -42 c-22 -23 -41 -51 -41
-61 1 -15 5 -11 14 11 8 17 35 48 61 68 l48 36 -67 0 c-47 0 -65 -3 -60 -11z"/>
<path d="M2650 2552 c0 -4 14 -24 31 -45 17 -21 28 -44 25 -52 -3 -8 -1 -15 3
-15 5 0 12 -7 15 -16 5 -12 2 -15 -10 -10 -10 4 -14 2 -10 -6 3 -7 9 -21 12
-30 4 -10 15 -18 25 -18 12 0 19 -9 21 -27 2 -22 8 -28 28 -28 14 -1 24 -6 23
-13 -2 -9 55 -42 73 -42 13 0 -27 62 -61 95 -23 22 -67 79 -98 128 -50 76 -77
105 -77 79z"/>
<path d="M2750 2547 c0 -16 48 -84 78 -110 20 -18 21 -18 41 2 27 27 27 58 1
66 -11 4 -20 15 -20 26 0 16 3 18 19 10 14 -8 20 -7 24 3 4 11 -11 14 -69 15
-57 1 -74 -2 -74 -12z"/>
<path d="M2916 2548 c-10 -30 -16 -68 -12 -68 5 0 46 65 46 74 0 12 -31 6 -34
-6z"/>
<path d="M2960 2518 c-13 -24 -39 -62 -57 -86 l-33 -43 30 -25 c16 -14 32 -35
35 -47 3 -12 18 -47 32 -79 29 -62 26 -88 -10 -88 -14 0 -30 -6 -37 -14 -6 -8
-21 -16 -32 -18 -14 -2 -25 -15 -33 -36 -6 -19 -28 -46 -48 -62 l-38 -28 30
-7 c17 -4 44 -19 59 -35 l29 -28 54 18 c43 15 55 23 57 42 l3 23 -19 -24 c-12
-15 -25 -22 -35 -18 -9 3 -19 2 -22 -3 -4 -6 -13 -10 -22 -10 -12 0 -9 7 11
26 25 25 36 51 17 40 -18 -12 -17 19 3 61 17 36 25 43 44 40 22 -4 22 -3 22
109 0 90 -3 112 -13 108 -18 -6 -39 40 -25 54 7 7 6 17 -2 31 -6 12 -8 26 -5
31 9 14 32 12 38 -2 3 -7 6 15 6 50 1 34 -3 62 -7 62 -5 0 -19 -19 -32 -42z"/>
<path d="M1278 2517 c-52 -39 -78 -87 -78 -144 0 -65 -14 -89 -107 -187 -195
-205 -232 -270 -218 -379 4 -29 11 -59 16 -67 7 -14 4 33 -6 84 -9 46 18 120
71 190 69 92 200 233 209 224 4 -3 -16 -29 -43 -57 -34 -35 -56 -68 -68 -104
-9 -29 -35 -78 -57 -110 l-39 -59 31 -43 c26 -37 30 -47 21 -69 -9 -24 -7 -28
28 -44 49 -22 62 -40 51 -69 -9 -24 10 -43 59 -58 14 -4 22 -14 22 -30 0 -17
7 -25 28 -29 93 -23 102 -27 102 -46 0 -11 -7 -20 -15 -20 -8 0 -15 5 -15 11
0 7 -7 8 -17 4 -40 -16 -98 -25 -126 -19 l-29 6 22 15 c17 12 24 13 29 4 6 -9
11 -8 20 3 19 22 -21 41 -51 24 -13 -7 -29 -11 -35 -10 -7 2 -13 -4 -13 -13 0
-42 -120 18 -140 70 -5 14 -12 25 -15 25 -2 0 0 -11 5 -25 5 -14 7 -25 4 -25
-4 0 -1 -7 6 -15 7 -8 15 -13 19 -11 3 2 15 -3 26 -11 19 -14 18 -15 -12 -11
-22 3 -34 0 -38 -10 -10 -27 -5 -35 13 -19 23 21 35 21 144 1 l87 -16 -24 -49
c-14 -26 -25 -55 -25 -63 0 -19 -39 -31 -54 -16 -8 8 -7 14 7 21 26 15 21 23
-28 47 -45 22 -45 22 -65 2 -18 -18 -50 -18 -50 -1 0 4 -15 7 -34 7 -22 -1
-32 -5 -29 -13 3 -8 -4 -13 -18 -13 -24 -1 -24 -1 -4 -16 18 -14 21 -13 34 5
16 25 34 27 56 5 14 -15 18 -15 41 1 25 16 27 16 46 -3 19 -18 19 -24 9 -78
-7 -33 -15 -74 -18 -92 -4 -27 -9 -33 -27 -30 -13 2 -22 11 -24 25 -3 17 1 20
17 16 12 -3 21 -1 21 6 0 6 -10 11 -21 11 -20 0 -21 4 -17 60 2 33 1 60 -3 60
-5 0 -9 -26 -11 -57 l-3 -58 -37 -3 c-37 -3 -38 -2 -40 30 -1 18 -1 43 0 56 0
12 -4 22 -9 22 -6 0 -9 -33 -7 -82 l3 -83 -30 0 c-20 0 -31 5 -33 18 -3 13 3
17 23 17 15 0 24 4 20 10 -3 6 -17 10 -31 10 -23 0 -24 3 -24 66 0 57 3 67 20
71 16 4 6 16 -56 69 -110 94 -141 107 -213 94 -32 -6 -96 -21 -142 -35 -96
-28 -110 -30 -126 -14 -17 17 41 101 63 92 9 -3 12 -8 5 -12 -5 -4 -15 -19
-20 -34 -10 -25 -9 -28 6 -25 10 2 19 12 20 23 1 11 4 29 7 40 2 11 5 24 5 28
1 5 5 6 10 2 5 -3 13 0 17 6 4 7 3 9 -3 6 -6 -4 -13 2 -16 14 -3 12 0 22 9 26
8 3 11 9 8 14 -3 6 0 16 6 24 14 16 35 21 25 6 -3 -6 3 -8 14 -6 24 5 91 -13
91 -24 0 -4 19 -16 43 -26 23 -10 56 -29 74 -42 32 -23 93 -32 93 -13 0 6 -12
10 -26 10 -17 0 -28 6 -31 20 -3 11 -14 20 -24 20 -10 0 -21 5 -24 10 -3 6
-18 10 -32 10 -14 0 -36 11 -48 24 -14 15 -43 28 -78 36 -30 6 -61 18 -68 26
-15 18 -3 32 13 16 7 -7 32 -12 58 -12 33 0 57 -8 90 -30 50 -33 104 -41 98
-14 -2 10 -15 18 -31 20 -15 1 -41 10 -59 18 -17 9 -40 16 -50 16 -10 0 -32 7
-48 15 -17 9 -33 15 -37 15 -5 0 -9 23 -10 51 -1 50 -52 173 -78 191 -7 5 -6
14 3 28 19 30 14 35 -9 9 -20 -23 -21 -18 -3 25 3 7 -2 16 -11 20 -9 3 -14 2
-11 -3 3 -5 0 -14 -8 -20 -11 -9 -15 -8 -20 6 -5 11 -1 22 10 30 16 11 15 14
-7 32 -13 11 -27 20 -31 21 -5 0 -8 7 -8 15 0 22 -18 18 -25 -5 -9 -27 -18
-25 -57 13 -19 18 -40 31 -46 29 -7 -2 -12 0 -12 6 0 5 -12 14 -26 20 -15 7
-22 17 -18 24 5 7 2 9 -8 5 -9 -3 -21 0 -27 6 -13 13 -23 6 -13 -9 4 -6 50
-42 102 -79 52 -37 108 -79 124 -94 29 -27 124 -151 145 -188 19 -36 12 -98
-21 -195 -36 -107 -105 -219 -183 -298 -42 -42 -55 -64 -60 -95 -9 -65 34
-128 147 -213 51 -38 140 -116 198 -173 86 -86 109 -115 128 -163 21 -54 22
-60 7 -82 -8 -13 -30 -31 -48 -40 -76 -40 -167 -118 -167 -144 0 -35 74 -88
181 -129 94 -37 110 -46 133 -82 25 -37 42 -55 91 -94 19 -16 19 -16 -8 -12
-15 2 -30 0 -33 -5 -3 -5 -29 13 -58 39 -67 62 -138 99 -201 107 -34 4 -44 3
-30 -3 11 -5 30 -10 43 -10 13 -1 37 -8 54 -17 l31 -16 -64 -65 c-74 -75 -176
-163 -189 -163 -6 0 -20 16 -32 35 -13 19 -26 35 -30 35 -10 0 -78 -101 -78
-115 0 -5 16 14 35 44 18 29 36 55 38 58 3 2 15 -12 27 -32 19 -30 20 -38 8
-53 -11 -15 -11 -16 3 -4 13 10 19 9 30 -4 12 -14 9 -16 -21 -14 -53 3 -107
-1 -92 -7 6 -2 9 -10 5 -16 -4 -7 0 -8 13 -2 10 5 40 10 67 13 49 4 55 10 35
30 -10 10 -7 16 12 29 33 23 101 83 182 162 l67 64 35 -27 c20 -15 36 -31 36
-37 0 -5 -16 -19 -35 -30 -19 -12 -35 -24 -35 -28 0 -5 -37 -39 -83 -77 -84
-71 -97 -83 -97 -97 0 -13 47 24 160 126 58 52 109 92 115 89 5 -3 4 -7 -3
-10 -7 -2 -12 -9 -12 -15 0 -8 4 -7 12 1 9 9 17 7 35 -10 l22 -21 -39 -38
c-21 -21 -44 -48 -51 -60 -6 -13 13 3 43 36 l54 58 47 -18 c26 -10 50 -21 52
-25 2 -4 -11 -30 -30 -58 -19 -28 -35 -54 -35 -57 0 -14 20 9 55 61 41 62 40
65 -26 85 -32 10 -35 14 -26 33 10 21 12 21 57 6 39 -12 49 -21 63 -54 16 -37
16 -40 -4 -64 l-20 -26 28 -22 c15 -13 34 -21 41 -19 8 3 22 5 33 5 13 0 19 7
19 24 0 14 9 31 21 39 21 16 59 12 59 -6 0 -5 9 -2 20 8 22 20 27 7 9 -28 -10
-21 -9 -21 5 -3 12 15 23 17 62 11 34 -5 43 -10 35 -18 -16 -16 -14 -27 7 -26
11 0 12 2 4 6 -10 4 -9 9 4 24 9 10 21 19 26 19 13 0 9 -38 -4 -43 -8 -3 -6
-6 5 -6 9 -1 17 4 17 9 0 13 53 13 65 1 6 -5 76 -11 158 -13 128 -3 146 -1
141 12 -4 8 -13 40 -20 70 -9 36 -12 42 -10 18 3 -25 0 -38 -10 -42 -10 -4
-14 3 -14 29 0 36 -18 47 -38 22 -7 -8 -6 -17 3 -30 10 -14 14 -15 18 -5 3 7
6 3 6 -9 1 -19 -4 -23 -28 -23 -24 0 -28 4 -24 19 3 10 -1 22 -8 27 -9 5 -11
2 -6 -9 6 -15 -2 -17 -63 -17 -39 0 -70 3 -70 7 0 3 7 14 15 23 14 15 12 16
-15 12 -36 -5 -41 15 -5 21 23 4 23 4 -2 3 -25 -1 -28 -4 -25 -34 3 -29 1 -32
-25 -32 -42 0 -151 19 -211 36 -37 10 -56 22 -62 37 -5 14 -9 16 -9 7 -1 -9
-25 -42 -54 -74 -47 -50 -55 -55 -67 -41 -11 13 -10 18 4 33 20 23 20 26 0 79
-14 36 -22 44 -50 49 -19 3 -36 10 -39 14 -2 4 18 26 45 49 28 23 55 52 61 64
6 12 -17 -6 -53 -40 -35 -35 -67 -63 -72 -63 -4 0 -26 14 -47 31 l-39 31 49
54 c66 72 155 200 198 282 l34 67 -5 -66 c-3 -37 -14 -93 -25 -125 -16 -43
-18 -60 -9 -65 9 -6 9 -11 0 -21 -13 -17 -3 -88 23 -157 18 -48 57 -88 65 -67
4 10 26 7 95 -11 50 -14 101 -24 115 -23 70 4 145 -1 200 -14 54 -13 62 -13
67 0 4 10 13 14 29 10 12 -3 25 -2 29 4 3 5 12 7 19 4 7 -3 16 2 19 10 4 9 13
16 22 16 8 0 15 6 15 13 0 6 18 29 40 51 36 35 49 64 35 78 -3 3 -31 -21 -62
-53 -97 -101 -213 -138 -229 -73 -10 38 -1 47 67 73 67 25 100 42 185 97 64
41 77 58 69 84 -8 26 -30 12 -39 -25 -3 -13 -15 -27 -26 -30 -12 -4 -31 -16
-44 -28 -45 -41 -56 -48 -129 -79 -90 -38 -97 -44 -97 -79 0 -15 -4 -31 -10
-34 -6 -4 -10 25 -10 79 0 47 3 86 7 86 4 0 19 -12 34 -26 l27 -26 38 35 c22
19 48 37 60 41 23 7 104 86 88 86 -6 0 -23 -14 -40 -31 -26 -28 -73 -59 -89
-59 -4 0 -4 9 0 19 5 15 -1 24 -25 36 -30 15 -33 15 -51 -1 -10 -9 -19 -24
-19 -32 0 -13 2 -13 18 1 22 20 52 5 52 -28 0 -32 -38 -45 -57 -19 -8 11 -19
19 -26 19 -20 0 -27 191 -16 410 6 110 7 236 4 279 -6 67 -5 78 7 74 8 -4 20
3 27 14 18 29 55 20 59 -14 4 -31 -29 -48 -53 -28 -13 10 -15 8 -15 -14 0 -22
7 -30 37 -43 50 -20 60 -12 106 81 32 65 40 76 52 66 12 -10 19 -8 35 11 23
29 26 49 5 49 -18 0 -20 26 -3 36 7 4 8 3 4 -4 -3 -6 3 -16 15 -23 17 -9 23
-8 30 2 4 7 11 10 15 7 4 -4 -1 -19 -10 -34 -10 -14 -15 -28 -12 -32 3 -3 6 1
6 8 0 11 3 11 13 2 15 -16 18 -154 3 -164 -36 -25 -55 2 -60 87 0 14 -6 25
-12 25 -20 0 -11 -64 37 -260 14 -54 14 -55 19 -20 4 31 9 35 37 38 25 2 33
-1 38 -18 4 -12 1 -28 -7 -37 -11 -14 -11 -15 2 -11 19 6 40 -33 34 -64 -2
-13 -2 -17 2 -10 9 19 24 4 24 -24 0 -14 4 -23 9 -20 15 9 42 -80 48 -156 3
-40 10 -78 15 -85 8 -11 9 -93 0 -93 -2 0 -13 11 -24 26 -27 33 -36 23 -10
-13 32 -47 36 -70 12 -83 -12 -6 -28 -9 -36 -6 -10 4 -25 -6 -41 -24 -53 -63
-54 -24 -3 87 24 52 26 60 10 51 -10 -7 -23 -22 -29 -35 -6 -13 -17 -26 -24
-29 -9 -3 -12 -23 -11 -67 2 -34 3 -63 3 -65 1 -2 21 13 45 32 23 20 49 36 56
36 7 0 33 11 56 25 43 26 44 26 38 73 -3 26 -10 61 -14 77 -5 17 -11 50 -15
75 -3 25 -8 59 -11 75 l-5 30 20 -25 c11 -14 23 -38 27 -54 3 -16 9 -24 13
-19 3 5 32 -18 64 -53 l57 -62 -25 -16 -25 -16 -34 67 c-19 38 -35 64 -35 58
-1 -5 13 -37 29 -69 23 -46 27 -62 18 -67 -7 -4 -22 -15 -33 -24 -19 -16 -19
-17 5 -3 14 8 55 31 91 52 50 27 76 50 105 91 34 51 36 57 25 82 -7 16 -22 49
-32 75 l-19 48 28 14 c15 8 48 35 74 60 37 37 43 46 27 46 -11 0 -18 -4 -14
-9 3 -5 1 -12 -5 -16 -18 -11 -10 24 10 43 11 10 21 29 22 42 3 22 0 24 -32
22 -45 -4 -86 11 -100 37 -9 18 -6 22 25 36 27 10 41 25 53 55 14 33 22 40 45
40 33 0 47 -29 47 -96 0 -50 19 -61 21 -11 l1 32 13 -40 12 -40 13 27 c11 23
9 31 -10 67 -13 22 -27 38 -31 35 -5 -2 -15 9 -24 26 -8 16 -32 38 -53 49 -20
10 -46 28 -56 40 -31 35 -46 27 -46 -25 0 -25 -5 -54 -10 -64 -6 -12 -7 -21
-1 -25 14 -8 31 28 31 66 0 31 0 32 20 14 31 -28 26 -71 -15 -112 -26 -26 -41
-34 -62 -31 -34 4 -46 38 -14 38 12 0 21 4 21 10 0 6 -16 8 -37 5 -48 -6 -86
4 -79 21 3 7 0 15 -7 18 -8 3 -3 13 13 27 21 19 22 21 5 16 -53 -15 -83 -17
-106 -8 -13 5 -19 10 -12 10 6 1 15 11 18 22 5 15 10 18 15 10 5 -9 26 -11 71
-7 35 4 80 7 101 8 33 2 37 6 48 41 8 28 15 37 28 33 9 -2 184 -8 387 -11 204
-4 373 -9 378 -12 4 -2 7 2 7 10 0 15 -185 24 -613 30 l-179 2 4 32 c2 18 0
33 -4 33 -4 0 -8 -18 -8 -39 0 -57 -7 -69 -37 -63 -24 5 -25 7 -20 53 3 27 2
51 -2 54 -5 2 -11 -30 -13 -71 -5 -76 -16 -97 -47 -91 -22 3 -32 55 -22 117 5
30 6 59 1 63 -11 12 -22 -106 -14 -148 6 -32 4 -35 -18 -35 -25 0 -58 27 -58
48 0 7 14 12 31 12 17 0 28 4 24 10 -3 6 -18 10 -32 10 -25 0 -25 1 -19 50 4
32 3 50 -4 50 -5 0 -11 -22 -11 -50 -3 -74 -3 -74 -19 -88 -13 -11 -13 -11 1
-6 30 10 30 -25 -1 -59 -24 -27 -32 -30 -47 -21 -10 7 -18 21 -17 33 0 11 -3
21 -8 21 -14 0 -9 -38 8 -55 9 -9 14 -25 11 -35 -3 -11 -1 -20 4 -20 5 0 9 -9
9 -19 0 -34 57 -189 94 -255 41 -73 99 -151 163 -217 l44 -46 -21 -36 c-33
-56 -46 -55 -113 10 -112 111 -230 322 -252 450 -4 24 -11 43 -16 43 -6 0 -8
-4 -4 -9 7 -12 -59 -26 -81 -17 -25 10 -6 24 42 32 37 5 44 9 39 24 -3 10 -10
52 -14 94 -5 42 -14 82 -20 90 -6 7 -9 20 -5 29 7 18 31 30 39 18 3 -5 -2 -11
-10 -15 -42 -16 0 -49 75 -59 49 -6 64 1 45 20 -19 18 -19 45 0 107 19 63 29
74 61 68 16 -3 29 1 35 9 6 11 14 11 42 1 19 -7 42 -10 51 -6 9 3 23 1 31 -6
8 -6 23 -9 34 -5 13 4 27 -1 39 -13 18 -18 44 -19 413 -24 217 -3 331 -2 254
2 -77 4 -202 8 -277 9 l-137 1 5 32 c4 32 -14 88 -28 88 -3 0 -22 -15 -41 -33
-28 -26 -34 -38 -30 -60 5 -27 5 -27 -48 -27 l-54 0 45 43 c25 23 56 50 70 60
14 10 17 14 5 8 -11 -5 -42 -26 -70 -45 -57 -41 -62 -42 -94 -19 l-24 16 62
28 c34 15 90 38 125 50 l65 21 33 -23 c18 -12 53 -39 78 -59 73 -60 106 -73
168 -67 31 3 61 12 67 19 7 7 15 40 18 73 4 38 3 53 -3 40 -5 -11 -9 -34 -9
-51 -2 -52 -20 -67 -88 -68 -34 0 -65 3 -70 8 -9 9 61 75 167 160 90 71 110
79 160 61 22 -8 40 -10 40 -5 0 5 -19 14 -42 20 -35 10 -48 9 -81 -6 -22 -10
-52 -30 -66 -44 -53 -49 -151 -131 -151 -125 0 3 7 20 16 36 8 17 17 41 20 52
2 12 11 28 21 35 9 6 14 12 10 12 -4 0 2 17 13 37 11 20 17 39 14 42 -9 9 -54
-51 -60 -79 -11 -48 -46 -145 -61 -168 -7 -12 -18 -20 -24 -17 -5 4 -6 11 -3
17 4 6 2 8 -4 4 -6 -3 -14 -1 -17 5 -4 6 -33 30 -64 53 -37 26 -57 48 -55 59
1 9 -2 15 -7 11 -5 -3 -7 -10 -4 -15 4 -5 -6 -9 -21 -9 -15 0 -81 -23 -146
-51 -68 -29 -126 -48 -135 -45 -13 5 -7 12 24 27 53 26 89 59 74 69 -16 9 -3
38 17 39 20 1 75 9 82 11 3 1 15 1 28 0 12 -1 22 4 22 12 0 10 3 9 10 -2 5 -8
12 -11 16 -8 3 4 34 -12 68 -35 33 -23 66 -42 71 -42 6 0 9 -8 9 -17 -1 -10 4
-14 12 -11 8 3 18 -5 23 -18 6 -14 10 -18 10 -9 1 9 -16 32 -36 51 -35 32 -61
51 -148 104 -16 10 -50 20 -73 21 -36 1 -43 -1 -39 -15 3 -14 -4 -17 -37 -19
-93 -4 -97 -4 -82 -16 21 -16 30 -56 14 -56 -8 0 -29 -16 -48 -35 -19 -19 -38
-35 -41 -35 -3 0 -24 14 -45 31 -25 20 -38 37 -36 50 2 13 -3 19 -17 19 -10 0
-21 -5 -23 -11 -2 -6 -22 -11 -43 -11 -22 0 -44 -3 -50 -8 -22 -17 -125 -20
-161 -5 -50 21 -56 18 -13 -5 34 -18 77 -78 94 -130 5 -16 2 -20 -19 -20 -14
0 -28 -4 -31 -10 -3 -5 -1 -10 4 -10 6 0 11 -9 11 -20 0 -18 -7 -20 -85 -20
-75 0 -85 -2 -85 -18 0 -10 -6 -24 -12 -31 -11 -11 -9 -12 8 -7 32 10 58 -3
43 -20 -8 -10 -15 -11 -24 -4 -13 11 -145 20 -145 10 0 -4 -25 -6 -55 -5 -30
1 -55 -2 -55 -7 0 -9 7 -10 70 -9 47 1 96 1 118 -1 6 -1 12 -7 12 -14 0 -7 -6
-17 -12 -21 -7 -4 -13 -17 -13 -27 0 -11 -6 -21 -12 -24 -8 -2 -13 6 -13 20 0
16 -9 29 -24 37 -20 11 -29 10 -57 -5 -19 -10 -37 -17 -41 -16 -5 1 -8 -3 -8
-8 0 -6 -21 -11 -47 -12 -48 -1 -48 -1 -8 -5 22 -3 43 -10 47 -16 12 -19 21
-175 13 -242 -5 -52 -10 -65 -24 -65 -22 0 -127 66 -134 84 -5 13 31 176 48
219 4 9 5 17 1 17 -12 0 -26 -41 -46 -133 -16 -74 -18 -100 -10 -114 15 -23
84 -73 102 -73 8 0 23 -6 34 -14 14 -11 16 -18 8 -26 -14 -14 -39 -3 -97 43
-21 16 -40 27 -43 24 -8 -8 55 -56 109 -83 48 -25 49 -27 44 -61 -4 -20 -9
-38 -12 -41 -16 -16 -170 123 -178 161 -3 12 -4 1 -2 -25 3 -41 13 -61 71
-140 103 -141 113 -169 121 -333 6 -134 6 -138 -13 -131 -10 4 -32 10 -49 13
-54 11 -163 77 -210 127 -6 6 -22 19 -35 30 -14 10 6 -11 44 -48 37 -36 90
-76 117 -88 27 -13 49 -27 49 -32 0 -12 -112 0 -152 17 -24 10 -41 30 -64 73
-17 32 -37 60 -45 62 -8 2 -11 0 -7 -4 8 -8 -9 -34 -22 -34 -12 0 -30 59 -30
99 l0 36 20 -42 c27 -60 33 -54 7 6 -20 48 -20 52 -4 123 9 40 19 101 22 135
3 36 17 85 34 120 92 189 111 235 126 298 22 90 35 118 63 130 12 5 22 15 22
22 0 7 7 13 15 13 8 0 15 7 15 15 0 9 12 20 26 25 38 15 42 12 14 -10 -31 -24
-19 -38 14 -16 32 20 36 20 37 -1 0 -13 3 -11 11 7 9 21 12 22 15 7 3 -10 11
-16 18 -14 7 3 17 1 22 -4 7 -7 23 -3 47 10 45 26 54 26 33 3 -16 -18 -16 -19
13 -19 31 0 39 14 18 35 -9 9 -9 12 -1 12 7 0 15 -4 18 -10 9 -15 25 -12 25 6
0 13 -13 15 -72 14 -40 -1 -130 -1 -200 -1 -124 1 -128 2 -128 22 0 22 2 22
146 16 106 -4 143 -2 135 6 -26 26 -12 56 37 82 53 28 67 38 102 80 21 24 18
23 -17 -7 -47 -42 -113 -78 -141 -78 -21 0 -100 48 -121 73 -7 9 -19 17 -25
17 -17 0 64 -66 106 -87 31 -15 38 -23 38 -49 0 -21 -5 -31 -15 -31 -8 0 -15
8 -15 17 0 10 -19 29 -43 44 -45 29 -93 89 -83 105 4 5 -5 26 -19 46 -24 36
-45 94 -45 124 0 10 8 7 25 -9 16 -15 23 -30 19 -42 -6 -21 -1 -22 25 -7 25
17 85 3 120 -27 l30 -25 7 25 c3 14 3 30 -1 36 -14 23 26 21 56 -4 17 -14 36
-26 43 -26 26 0 102 58 121 93 11 20 23 37 28 37 10 0 3 -22 -34 -113 -15 -38
-22 -66 -16 -64 37 16 114 47 129 51 14 4 15 11 9 34 -5 16 -5 36 0 43 5 8 6
21 3 31 -2 9 1 20 7 24 8 5 9 3 4 -7 -8 -12 -6 -12 8 -1 9 8 22 10 28 6 7 -4
9 -3 6 3 -4 6 4 18 18 27 30 20 31 26 5 54 -19 20 -61 110 -88 187 -7 21 -11
24 -11 10 0 -18 29 -97 73 -197 l16 -37 -30 -16 c-29 -15 -29 -15 -40 17 l-10
33 4 -36 c3 -27 0 -38 -15 -48 -11 -6 -24 -9 -29 -6 -4 3 -11 -1 -13 -7 -4 -9
-6 -10 -6 -1 -1 6 4 15 9 18 6 3 9 25 8 48 l-1 42 -4 -37 c-2 -20 -10 -39 -17
-41 -11 -4 -15 23 -19 126 -5 132 -22 231 -49 297 l-15 35 4 -60 c2 -33 13
-90 24 -127 10 -36 19 -93 19 -126 0 -57 -1 -60 -27 -65 -16 -3 -31 -1 -34 5
-7 11 -24 108 -39 218 l-9 65 5 -80 c2 -44 7 -117 11 -162 4 -64 3 -83 -7 -83
-8 0 -10 -3 -7 -7 4 -3 16 2 27 12 10 9 26 15 34 12 9 -4 18 -2 21 3 13 22 35
9 35 -19 0 -24 -3 -28 -20 -24 -11 3 -18 9 -15 13 11 18 -26 17 -49 -1 -39
-30 -94 -51 -102 -38 -4 8 -9 7 -15 -2 -6 -10 -9 -6 -9 14 0 15 5 27 10 27 6
0 10 6 10 13 1 14 35 57 45 57 4 0 0 -11 -9 -24 -8 -14 -18 -39 -21 -57 -5
-27 -4 -30 8 -20 8 6 18 26 21 44 5 26 9 29 17 17 13 -19 0 209 -13 230 -6 10
-8 -12 -5 -62 2 -43 0 -78 -5 -78 -4 0 -8 -7 -8 -15 0 -9 -5 -21 -10 -28 -25
-29 -64 -94 -73 -122 -6 -16 -15 -33 -20 -37 -6 -4 -3 -14 8 -25 14 -13 17
-14 13 -3 -3 8 1 31 8 50 7 19 13 27 13 17 1 -14 6 -17 21 -12 14 4 22 1 26
-10 6 -14 10 -13 30 6 18 17 40 24 85 27 59 4 61 4 50 -16 -26 -49 -131 -85
-144 -49 -2 6 -8 9 -12 5 -4 -4 5 -18 20 -32 31 -29 22 -34 -21 -11 -41 21
-61 19 -80 -10 -15 -23 -17 -24 -41 -8 -16 11 -20 18 -12 23 8 6 8 9 -2 14 -8
3 -4 4 8 2 21 -4 22 -3 8 17 -8 12 -15 28 -15 37 0 8 -19 23 -42 33 l-43 17
30 19 30 18 11 -31 c21 -56 26 -4 9 80 -11 52 -15 104 -11 154 3 48 2 64 -3
45 -5 -16 -9 -64 -10 -105 -2 -120 -9 -145 -42 -157 -24 -10 -29 -9 -29 5 0 8
-3 12 -7 9 -3 -4 -13 -1 -22 6 -14 10 -14 10 -3 -4 10 -14 10 -20 -3 -33 -22
-22 -23 -21 -16 17 5 22 13 32 24 31 15 -2 17 9 16 85 -1 66 -3 78 -9 51 -4
-19 -16 -67 -27 -106 -17 -70 -20 -73 -67 -98 l-49 -26 6 87 c7 99 22 160 66
283 17 46 31 86 31 89 -1 3 -16 -24 -35 -61 -42 -82 -78 -236 -78 -340 l-1
-77 -27 15 -28 14 21 72 c11 39 27 90 34 111 8 22 14 47 14 56 -1 22 -28 -39
-59 -133 -15 -44 -31 -81 -37 -83 -5 -2 -18 3 -29 11 -18 13 -18 17 23 122 24
60 54 151 68 203 33 125 54 158 121 187 66 30 77 30 63 5 -5 -11 -10 -26 -10
-33 1 -7 11 5 23 28 43 80 53 88 99 87 24 -1 67 -2 96 -2 68 0 82 -12 83 -70
0 -25 5 -68 9 -96 7 -43 8 -37 7 43 -2 70 1 92 11 92 21 0 52 -20 52 -33 0 -7
26 -22 58 -35 33 -12 68 -32 80 -45 23 -25 66 -126 76 -180 4 -21 27 -87 51
-148 25 -61 42 -115 39 -120 -8 -13 -31 -11 -38 4 -3 6 -3 2 -1 -9 5 -21 -16
-40 -38 -35 -5 1 -6 -3 -2 -9 3 -5 0 -10 -8 -10 -10 0 -13 -7 -10 -19 6 -25
-35 -50 -48 -30 -6 10 -9 8 -9 -8 0 -20 3 -22 27 -12 37 14 53 28 47 42 -2 7
18 28 46 47 44 32 49 38 44 66 -4 23 1 38 20 61 14 17 26 37 26 44 0 8 -16 37
-36 64 -20 28 -48 75 -64 105 -15 30 -38 64 -50 75 -13 11 -34 37 -47 58 -18
29 -41 46 -89 67 -35 16 -67 36 -70 44 -3 8 -20 18 -37 22 -18 3 -40 13 -49
22 -12 10 -43 16 -95 17 -43 2 -82 4 -88 5 -21 5 -32 -1 -68 -35 -20 -19 -49
-38 -64 -41 -16 -4 -43 -16 -62 -26 -30 -17 -33 -17 -27 -2 4 9 11 49 16 88 6
39 13 78 15 87 6 18 78 79 94 79 5 0 13 5 16 10 12 20 -14 9 -57 -23z m-157
-377 c-7 -3 -23 -40 -37 -80 -13 -41 -30 -80 -36 -87 -7 -9 -7 -13 0 -13 6 0
16 8 21 18 13 22 14 11 1 -23 -8 -21 -13 -24 -29 -16 -16 9 -21 6 -31 -19 -7
-17 -16 -30 -21 -30 -22 0 -16 24 20 75 22 31 48 80 57 108 17 55 56 107 63
86 2 -6 -2 -15 -8 -19z m805 -65 c12 -27 41 -76 63 -108 40 -56 51 -87 31 -87
-8 0 -65 75 -83 110 -9 18 -3 -15 8 -45 6 -16 5 -18 -5 -8 -7 6 -14 29 -15 51
-1 21 -14 65 -28 97 -32 67 -32 72 -10 54 9 -8 26 -36 39 -64z m-896 -184
c-13 -25 -13 -34 0 -26 6 3 7 -1 4 -10 -6 -14 -8 -14 -19 1 -15 21 -8 54 12
54 10 0 11 -4 3 -19z m348 -167 c26 -11 33 -19 30 -36 -2 -19 -10 -23 -43 -26
-35 -2 -46 3 -82 38 -24 23 -43 42 -43 44 0 8 108 -8 138 -20z m-153 6 c-3 -5
-2 -10 3 -10 10 0 24 -41 17 -48 -6 -6 -65 22 -65 30 0 5 7 8 15 8 8 0 14 3
14 8 -3 15 1 22 12 22 5 0 7 -4 4 -10z m550 -85 c-34 -43 -60 -48 -50 -7 3 15
10 28 15 30 5 2 7 9 4 17 -4 9 0 12 14 8 11 -2 24 1 28 9 7 10 9 9 12 -4 2
-10 -9 -33 -23 -53z m-628 36 c6 6 10 0 10 -19 0 -28 -2 -29 -29 -18 -15 6
-28 18 -28 27 0 24 13 32 26 15 7 -10 14 -12 21 -5z m60 -13 c4 -7 17 -18 27
-24 24 -13 33 -34 14 -34 -14 0 -68 50 -68 63 0 12 18 8 27 -5z m-556 -154
c56 -35 130 -104 123 -115 -3 -5 -16 -9 -30 -9 -13 0 -24 -6 -24 -12 0 -7 -16
11 -35 39 -48 72 -62 76 -20 6 19 -32 35 -63 35 -69 0 -11 -196 -24 -357 -24
-73 0 -73 0 -74 28 l-2 27 -4 -29 c-5 -29 -5 -29 -64 -23 -32 3 -59 1 -59 -3
0 -5 5 -10 12 -12 6 -2 8 -10 4 -16 -10 -17 -29 -15 -23 3 4 8 2 17 -3 20 -16
10 10 61 53 102 34 32 54 42 102 51 33 7 98 23 145 36 115 33 169 33 221 0z
m1453 -67 c44 -30 97 -63 116 -75 19 -12 29 -22 22 -22 -7 0 -26 10 -41 21
-16 12 -34 18 -40 14 -7 -4 -18 -2 -24 4 -13 10 -111 15 -175 9 -20 -2 -40
-12 -50 -26 -25 -33 -56 -18 -87 43 -14 28 -25 53 -25 56 0 4 18 9 40 11 34 3
40 1 41 -17 2 -18 2 -17 6 2 4 23 17 29 78 36 42 5 47 3 139 -56z m-854 51
c-1 -23 -39 -118 -46 -116 -5 1 -8 8 -6 14 1 6 -4 14 -13 18 -8 3 -15 1 -15
-4 0 -6 4 -10 9 -10 5 0 9 -6 8 -12 -1 -37 4 -53 12 -40 12 19 13 -141 1 -172
-5 -14 -17 -26 -25 -26 -19 0 -38 43 -21 49 20 7 26 25 26 84 0 50 -3 60 -19
64 -11 3 -22 12 -25 20 -3 8 -1 11 4 8 6 -3 10 -4 10 -1 0 2 3 12 7 22 5 13 3
15 -7 9 -7 -4 -2 11 11 35 15 27 34 47 49 51 29 8 40 10 40 7z m65 -78 c14
-27 25 -52 25 -55 0 -8 -74 -6 -87 3 -18 12 11 102 33 102 2 0 15 -22 29 -50z
m46 -26 c23 -25 25 -35 4 -27 -17 6 -55 73 -55 95 0 7 7 0 16 -17 8 -16 24
-39 35 -51z m1078 2 c1 -22 -3 -27 -15 -22 -9 3 -27 9 -41 12 l-24 7 33 34
c29 30 33 31 40 16 3 -10 7 -31 7 -47z m-1373 -14 c-11 -2 -29 7 -45 23 l-26
27 45 -23 c34 -17 40 -24 26 -27z m-295 -97 c3 -59 2 -93 -5 -97 -10 -7 36
-13 59 -8 6 1 32 2 59 1 27 0 55 4 63 10 9 8 13 8 13 0 0 -6 13 -11 29 -11 16
0 31 -6 34 -14 7 -17 -68 -31 -116 -21 -25 6 -29 4 -20 -5 6 -7 29 -12 50 -11
21 1 61 3 88 4 48 2 50 1 48 -23 -2 -14 -47 -115 -102 -226 -96 -195 -215
-391 -284 -466 l-34 -38 -47 16 c-25 9 -51 25 -57 36 -9 17 -5 26 23 57 18 20
37 41 42 46 5 6 -5 -16 -23 -49 -18 -32 -30 -60 -28 -62 5 -6 67 101 67 115 0
9 59 105 80 128 5 7 10 20 10 30 0 10 7 56 16 103 16 83 37 120 69 120 14 0
139 118 147 140 3 8 2 24 -3 35 -6 17 -8 17 -8 3 -1 -12 -9 -18 -23 -18 -20 0
-21 1 -3 20 10 11 13 20 8 20 -6 0 -16 -7 -23 -15 -7 -8 -27 -15 -44 -15 -23
0 -27 3 -16 10 8 5 11 12 7 16 -4 4 -15 1 -24 -8 -14 -15 -12 -17 23 -27 22
-6 53 -11 69 -12 l30 -1 -29 -10 c-62 -23 -172 44 -182 111 -4 24 -2 31 6 26
9 -6 9 -2 1 14 -10 18 -9 21 6 21 14 0 14 3 -5 20 -34 32 -29 135 7 128 13 -3
17 -21 22 -93z m397 11 c5 -57 -5 -86 -28 -86 -13 0 -20 7 -20 19 0 30 11 51
26 51 8 0 14 5 14 10 0 6 -8 10 -17 8 -12 -2 -19 5 -21 20 -3 20 0 23 20 20
19 -2 24 -10 26 -42z m732 40 c0 -2 -7 -22 -15 -46 -10 -29 -12 -47 -5 -60 15
-28 13 -30 -30 -30 l-40 0 0 70 0 70 45 0 c25 0 45 -2 45 -4z m-1190 -20 c0
-8 -7 -16 -15 -20 -8 -3 -15 -16 -15 -30 0 -27 15 -42 25 -26 3 5 1 10 -4 10
-6 0 -11 10 -11 22 0 28 16 13 25 -24 l7 -28 -227 0 c-201 0 -226 2 -215 15
10 12 10 15 -4 15 -9 0 -16 7 -16 16 0 14 2 15 17 3 15 -13 15 -12 3 11 l-14
25 -9 -26 c-7 -19 -17 -26 -34 -26 -13 0 -22 4 -20 11 3 6 10 10 16 8 14 -3
15 15 1 23 -5 3 -15 -5 -21 -19 -16 -35 3 -61 31 -43 11 6 22 8 26 4 11 -10 3
-14 -38 -22 -34 -6 -38 -5 -52 24 -15 28 -15 33 0 56 l16 25 252 3 c138 1 257
3 264 5 6 1 12 -4 12 -12z m397 -43 c3 -47 1 -53 -17 -53 -25 0 -25 9 -2 26
16 13 16 13 0 14 -10 0 -18 -5 -18 -12 0 -6 -7 -3 -15 8 -15 20 -20 56 -8 68
4 4 19 6 33 4 23 -3 25 -7 27 -55z m169 -18 c1 -7 -7 -21 -17 -31 -20 -18 -27
-6 -7 14 9 9 8 12 -5 12 -22 0 -22 17 1 22 20 5 25 2 28 -17z m-199 -53 c23
-38 23 -42 8 -49 -35 -13 -77 42 -62 82 10 24 26 15 54 -33z m-137 10 c0 -20
-4 -23 -32 -20 -24 2 -34 8 -36 24 -2 17 3 20 33 20 30 0 35 -3 35 -24z m1240
-7 c0 -9 -9 -15 -25 -15 -18 0 -23 4 -19 15 4 8 15 15 25 15 10 0 19 -7 19
-15z m-1701 -4 c2 -1 -23 -19 -56 -40 -34 -22 -65 -47 -71 -56 -8 -15 -18 -10
-79 36 l-71 54 35 3 c20 2 56 -6 84 -17 56 -25 90 -27 39 -3 l-35 16 55 6 c47
4 81 5 99 1z m117 1 c-3 -5 1 -9 9 -9 8 0 12 4 9 9 -3 4 20 8 50 8 54 0 56 -1
56 -26 0 -19 -21 -48 -79 -108 -43 -44 -90 -97 -103 -117 l-24 -36 -39 32 -38
33 26 17 c15 9 25 21 22 25 -3 5 15 26 39 46 25 21 42 42 39 47 -3 6 -1 7 5 3
7 -4 24 0 39 9 16 8 46 19 68 24 33 7 35 9 12 10 -15 1 -44 -6 -64 -14 -42
-18 -57 -19 -47 -4 4 7 -6 2 -22 -10 -29 -21 -164 -71 -193 -71 -28 0 2 18 74
45 39 15 85 35 103 46 19 10 39 16 45 13 8 -4 7 -2 -1 7 -10 11 -16 11 -34 0
-30 -19 -161 -71 -166 -66 -2 2 27 24 64 49 54 35 78 45 112 46 24 0 41 -4 38
-8z m545 -32 c7 -19 18 -30 30 -30 10 0 19 -2 19 -5 0 -33 -158 -392 -230
-522 -25 -45 -67 -111 -93 -148 l-48 -66 -29 21 -30 21 -9 -24 c-5 -14 -15
-44 -21 -67 l-11 -43 -28 34 -28 34 47 55 c45 54 100 134 172 255 56 92 219
441 225 480 7 43 21 45 34 5z m-340 -116 c18 -9 47 -16 65 -17 19 -1 34 -4 34
-8 0 -14 -31 -18 -58 -9 -25 9 -25 9 -8 -4 30 -24 15 -36 -27 -21 -72 25 -115
79 -90 114 l15 23 19 -31 c10 -16 32 -37 50 -47z m-266 43 c-16 -12 -46 -39
-65 -60 l-36 -37 -29 30 c-16 16 -23 31 -17 31 20 2 28 5 112 42 52 23 69 20
35 -6z m1429 14 c3 -5 -6 -17 -20 -26 -22 -14 -28 -15 -35 -4 -13 20 -11 27 9
32 29 8 41 7 46 -2z m66 -23 c0 -31 47 -88 86 -104 19 -8 34 -21 34 -28 0 -21
30 -48 46 -42 16 6 88 -100 78 -115 -7 -12 -94 -69 -105 -69 -14 0 -11 -10 26
-85 21 -41 33 -77 29 -88 -8 -24 -13 -21 -71 43 -109 122 -165 215 -214 352
-29 82 -35 107 -23 95 4 -3 25 9 47 28 47 40 67 44 67 13z m-1216 -117 l31 -9
-30 -1 c-23 -1 -26 -4 -15 -11 12 -8 12 -10 -3 -16 -12 -4 -31 6 -62 35 -24
22 -49 41 -55 41 -13 0 -13 43 1 57 7 7 24 -3 56 -38 25 -27 60 -53 77 -58z
m-147 32 c13 -15 26 -38 30 -52 3 -14 13 -32 22 -38 14 -11 14 -14 1 -23 -8
-5 -28 -10 -45 -10 -16 0 -39 -3 -50 -5 -16 -4 -24 3 -38 35 -20 42 -16 72 11
103 21 24 43 21 69 -10z m1138 -44 c10 -15 4 -18 -48 -25 -39 -6 -47 -4 -47 9
0 10 11 17 33 20 17 2 37 5 44 5 6 1 15 -3 18 -9z m-1069 -101 c-3 -13 -6 -31
-6 -40 0 -11 -8 -18 -20 -18 -28 0 -70 -21 -70 -36 0 -9 11 -7 38 6 33 16 37
17 40 3 6 -27 -76 -180 -138 -256 -32 -39 -54 -74 -49 -75 5 -2 9 -8 9 -14 0
-7 -4 -7 -12 -1 -7 6 -24 13 -38 17 -40 10 -55 23 -44 38 13 16 30 61 44 115
9 35 18 46 64 72 60 33 72 54 56 96 -12 32 -15 29 58 77 67 43 76 46 68 16z
m-97 -11 c-19 -13 -36 -19 -38 -14 -5 14 28 37 52 37 16 0 13 -5 -14 -23z
m660 -163 c13 -14 42 -34 63 -45 36 -18 38 -22 39 -67 0 -26 2 -55 4 -64 6
-31 -9 -19 -33 25 -13 24 -43 71 -67 103 -25 32 -45 62 -45 67 0 14 15 7 39
-19z m-823 -90 c-4 -15 -14 -33 -21 -41 -8 -8 -15 -28 -15 -45 0 -29 -1 -30
-22 -16 -37 24 -33 51 12 91 48 44 54 45 46 11z m317 -191 c14 -17 13 -21 -18
-58 -19 -22 -36 -37 -39 -34 -7 6 26 109 34 109 4 0 14 -8 23 -17z m286 -139
c27 -45 26 -54 -2 -54 -30 0 -47 18 -47 50 0 51 20 53 49 4z m362 -205 l64 -6
-72 -1 -73 -2 1 28 c0 23 1 24 8 7 6 -16 20 -21 72 -26z"/>
<path d="M524 1492 c-41 -4 -51 -35 -23 -74 24 -33 53 -31 79 4 34 48 10 77
-56 70z m48 -20 c14 -6 13 -11 -13 -39 -16 -18 -31 -33 -33 -33 -2 0 -7 11
-10 24 -3 13 -9 31 -12 40 -5 12 0 16 22 15 16 0 37 -3 46 -7z"/>
<path d="M790 825 c-18 -19 -32 -36 -29 -38 10 -9 74 -27 95 -27 l24 0 -18 47
c-9 25 -22 48 -27 50 -6 2 -26 -12 -45 -32z m58 -12 c6 -20 10 -39 8 -41 -2
-2 -23 2 -46 8 l-42 11 28 30 c15 16 31 29 34 29 4 0 12 -17 18 -37z"/>
<path d="M631 1291 c-9 -15 -9 -27 -1 -41 11 -20 30 -19 30 1 0 6 -4 8 -9 4
-13 -7 -24 12 -15 26 4 8 9 7 15 -2 5 -8 9 -9 9 -4 0 6 -4 16 -9 24 -7 11 -11
9 -20 -8z"/>
<path d="M466 1284 c-4 -9 -4 -19 -1 -22 3 -3 5 0 5 6 0 7 5 12 10 12 6 0 10
-7 10 -15 0 -8 -7 -15 -16 -15 -8 0 -13 -4 -10 -8 6 -10 82 -9 92 1 4 4 0 7
-9 7 -10 0 -17 7 -17 15 0 18 16 20 23 3 3 -7 6 -8 6 -3 1 18 -17 38 -28 31
-6 -4 -11 -16 -11 -27 0 -27 -17 -24 -24 6 -7 29 -21 33 -30 9z"/>
<path d="M576 1284 c-4 -9 -4 -19 -1 -22 3 -3 5 0 5 6 0 7 5 12 10 12 6 0 10
-7 10 -15 0 -8 -8 -15 -17 -15 -13 0 -14 -3 -5 -12 18 -18 36 5 28 36 -7 30
-21 34 -30 10z"/>
<path d="M2014 879 c-3 -5 5 -9 18 -9 13 -1 36 -6 52 -13 l29 -12 -42 -29
c-47 -33 -54 -43 -13 -22 47 26 76 53 64 60 -25 15 -102 33 -108 25z"/>
<path d="M657 743 c-10 -9 5 -33 19 -33 18 0 18 26 0 33 -8 3 -16 3 -19 0z"/>
<path d="M623 713 c-6 -17 -27 -49 -47 -71 -20 -22 -36 -47 -36 -56 0 -9 -12
-34 -26 -56 -14 -21 -24 -47 -22 -57 2 -13 17 3 51 54 57 85 100 176 95 201
-3 12 -7 8 -15 -15z"/>
<path d="M1162 2378 c-1 -26 -6 -58 -11 -71 -11 -28 -88 -110 -111 -120 -13
-5 -13 -6 1 -6 8 -1 38 23 66 53 54 57 68 93 60 157 -3 29 -4 27 -5 -13z"/>
<path d="M876 2365 c3 -22 8 -86 11 -142 4 -84 1 -113 -16 -165 -27 -86 -47
-158 -67 -250 -12 -53 -22 -78 -31 -78 -8 0 -17 9 -20 20 -3 11 -9 17 -14 14
-5 -3 -9 4 -9 16 0 14 -5 20 -17 18 -10 -2 -19 5 -22 17 -3 11 -13 20 -21 20
-8 0 -15 9 -15 20 0 13 -6 19 -18 17 -12 -2 -17 4 -17 23 0 14 -4 25 -10 25
-19 0 -10 -35 16 -65 38 -43 74 -91 74 -97 0 -3 -10 -9 -22 -12 -22 -6 -23 -7
-4 -21 23 -17 80 -30 100 -22 15 6 42 78 56 153 13 67 47 189 59 213 15 28 12
226 -5 286 -12 45 -13 46 -8 10z"/>
<path d="M1415 2280 c-19 -37 -85 -206 -85 -217 0 -20 66 109 87 171 25 75 24
97 -2 46z"/>
<path d="M1488 2235 c-3 -33 -12 -107 -21 -165 -21 -141 -36 -264 -33 -267 2
-2 15 43 30 99 38 143 50 250 39 329 l-9 64 -6 -60z"/>
<path d="M975 2260 c-11 -17 5 -48 23 -46 19 1 41 24 42 44 0 14 -56 17 -65 2z"/>
<path d="M1325 2216 c-42 -95 -66 -195 -69 -291 -2 -49 -2 -73 1 -52 2 20 8
37 13 37 5 0 7 6 4 14 -5 14 44 219 71 295 23 65 9 63 -20 -3z"/>
<path d="M1691 2265 c26 -70 85 -193 87 -185 8 23 -40 149 -65 172 -14 13 -24
18 -22 13z"/>
<path d="M0 2201 l0 -59 53 -4 c60 -5 79 -10 88 -21 4 -5 16 -7 28 -5 18 2 9
13 -55 63 -127 98 -114 95 -114 26z m44 -21 l7 -25 -20 24 c-25 27 -31 66 -7
41 8 -8 17 -26 20 -40z"/>
<path d="M2810 2240 c9 -16 8 -20 -5 -20 -9 0 -13 -4 -10 -10 3 -5 -5 -19 -19
-31 -14 -12 -23 -26 -20 -31 3 -4 -2 -8 -11 -8 -11 0 -15 -5 -11 -15 3 -10 -1
-15 -14 -15 -13 0 -18 -6 -15 -20 3 -16 -4 -22 -36 -30 -25 -7 -40 -17 -41
-28 0 -9 -2 -22 -2 -28 -1 -6 -8 -19 -16 -29 -14 -17 -15 -16 -20 11 -6 36
-25 29 -25 -9 0 -22 -5 -29 -30 -36 -23 -6 -29 -12 -27 -29 2 -11 -6 -30 -17
-41 -12 -12 -21 -18 -21 -15 0 4 -7 1 -15 -6 -8 -7 -15 -23 -15 -36 0 -29 -16
-32 -25 -4 -7 22 -13 24 -33 11 -11 -6 -7 -13 14 -30 26 -20 26 -22 9 -40 -9
-11 -14 -25 -10 -30 3 -6 -1 -11 -9 -11 -8 0 -18 5 -21 10 -3 6 -1 10 5 10 11
0 31 41 24 49 -2 3 -11 -4 -19 -15 -12 -15 -16 -16 -24 -5 -8 13 -12 -4 -13
-69 0 -13 -7 -30 -16 -38 -16 -13 -16 -13 1 -8 10 3 26 6 36 6 19 0 71 72 71
97 0 14 78 100 185 206 22 21 78 68 125 103 56 43 94 81 112 112 15 26 28 50
28 54 0 7 -64 38 -77 38 -2 0 1 -9 7 -20z"/>
<path d="M1553 2170 c0 -41 2 -58 4 -37 2 20 2 54 0 75 -2 20 -4 3 -4 -38z"/>
<path d="M1200 2200 c-19 -27 -80 -164 -80 -179 0 -3 20 30 43 74 23 44 51 92
61 108 25 37 3 35 -24 -3z"/>
<path d="M1024 2162 c3 -5 -13 -26 -34 -47 -28 -27 -40 -34 -40 -23 0 9 14 28
31 42 34 29 24 36 -12 8 -21 -18 -55 -102 -40 -102 3 0 32 29 64 65 38 43 53
65 42 65 -9 0 -14 -4 -11 -8z"/>
<path d="M1868 1993 c38 -76 76 -154 85 -173 12 -24 15 -27 11 -10 -9 38 -140
306 -153 314 -6 4 19 -55 57 -131z"/>
<path d="M630 2098 c0 -10 7 -18 15 -18 27 0 30 -1 48 -17 21 -20 28 -14 20
16 -3 13 -11 20 -19 17 -17 -7 -46 3 -39 13 2 4 -2 8 -10 8 -8 0 -15 -9 -15
-19z"/>
<path d="M2463 2080 c0 -10 9 -23 18 -28 13 -9 18 -7 22 7 2 11 -4 21 -19 28
-19 9 -22 8 -21 -7z"/>
<path d="M160 2085 c0 -12 34 -65 41 -65 6 0 7 -4 4 -10 -3 -5 -1 -10 4 -10 6
0 11 10 11 21 0 18 2 19 15 9 8 -7 15 -21 15 -31 0 -10 5 -21 12 -25 7 -4 8
-3 4 4 -12 20 10 13 29 -8 10 -11 14 -20 10 -20 -5 0 -4 -5 3 -12 7 -7 12 -21
12 -32 0 -17 2 -18 10 -6 8 13 10 13 10 -2 0 -28 -19 -70 -30 -63 -6 4 -7 11
-4 17 5 7 2 8 -5 3 -7 -4 -11 -16 -8 -26 3 -10 1 -22 -4 -25 -5 -3 -5 -13 1
-25 7 -13 7 -19 0 -19 -5 0 -10 -5 -10 -10 0 -10 -8 -22 -38 -55 -8 -9 -19
-12 -25 -8 -7 4 -7 0 1 -10 12 -14 10 -16 -15 -12 l-28 4 25 -12 c14 -6 28
-16 32 -21 7 -10 -17 -66 -28 -66 -3 0 -34 25 -67 56 -76 69 -101 82 -122 64
-8 -7 -15 -17 -15 -23 0 -5 9 -2 20 8 22 20 23 20 120 -69 48 -42 52 -49 38
-62 -14 -14 -18 -12 -43 28 -15 23 -24 35 -21 25 3 -10 6 -23 6 -27 0 -5 10
-18 22 -30 l22 -20 -27 -27 -26 -27 -24 22 -24 23 -13 -30 c-6 -17 -10 -36 -8
-43 3 -7 8 2 12 20 8 35 17 40 36 17 10 -12 7 -20 -14 -46 -14 -17 -26 -37
-26 -45 0 -8 -11 -36 -25 -62 -14 -26 -25 -52 -25 -59 0 -12 95 -63 117 -63 6
0 14 -11 17 -25 3 -13 20 -40 36 -58 l29 -34 -42 -28 c-43 -28 -56 -30 -119
-19 -34 6 -38 4 -38 -15 0 -17 6 -21 33 -21 17 0 39 -4 47 -10 16 -10 16 -10
-50 -29 -33 -10 -33 -10 10 -5 43 6 70 19 70 33 0 4 -22 13 -50 21 -27 7 -48
15 -45 18 2 2 26 -2 53 -8 48 -13 50 -12 95 18 25 18 50 32 56 32 20 0 12 16
-19 38 -16 13 -38 39 -49 60 -18 35 -86 82 -119 82 -23 0 -21 20 8 75 17 31
30 62 30 69 0 6 23 36 51 66 90 99 116 134 129 175 7 22 20 49 30 60 18 21 73
133 85 172 8 29 -13 68 -80 145 -42 48 -63 64 -90 69 -19 3 -35 5 -35 4z"/>
<path d="M567 2016 c4 -26 1 -42 -11 -54 -14 -16 -14 -21 -1 -38 14 -18 14
-17 15 12 0 41 21 48 52 19 28 -25 78 -24 78 2 0 11 -7 14 -27 10 -30 -6 -83
25 -83 47 0 8 -7 19 -15 26 -12 10 -13 6 -8 -24z"/>
<path d="M614 2023 c-22 -22 -2 -29 26 -10 17 12 18 16 6 20 -9 4 -23 -1 -32
-10z"/>
<path d="M2432 1933 c-11 -19 -10 -23 2 -23 9 0 20 -9 26 -21 9 -16 14 -18 26
-8 11 9 12 14 3 19 -6 4 -9 12 -5 18 3 6 -2 8 -13 5 -13 -3 -20 1 -23 14 -4
16 -5 16 -16 -4z"/>
<path d="M2357 1922 c-9 -9 -15 -24 -13 -32 9 -47 37 -69 34 -27 0 12 3 34 7
50 8 31 -4 36 -28 9z"/>
<path d="M2685 1895 c-22 -19 -58 -41 -81 -50 -51 -20 -105 -84 -115 -139 -4
-23 -6 -43 -4 -45 10 -9 75 11 75 24 0 7 6 15 13 18 6 2 8 8 4 13 -4 4 -21 0
-37 -10 -27 -16 -31 -16 -36 -1 -7 18 19 42 56 51 51 12 54 14 42 26 -18 18
-14 38 8 38 11 0 20 -7 20 -15 0 -22 18 -18 25 5 4 11 10 18 15 15 4 -3 10 2
13 10 3 7 22 17 42 21 19 3 38 10 41 15 3 5 14 9 26 9 16 0 18 -3 9 -14 -16
-19 7 -27 92 -31 38 -2 75 -9 83 -16 19 -16 30 -4 14 16 -7 8 -26 15 -43 15
-17 0 -60 17 -99 40 -39 22 -82 40 -96 40 -16 -1 -44 -15 -67 -35z"/>
<path d="M2918 1913 c-19 -5 -24 -18 -10 -27 5 -3 28 -8 51 -12 41 -7 43 -6
39 17 -2 19 -10 24 -33 26 -16 0 -38 -1 -47 -4z"/>
<path d="M1481 1864 c6 -8 9 -26 5 -41 -7 -31 7 -13 18 23 5 16 2 23 -14 27
-17 4 -19 3 -9 -9z"/>
<path d="M1801 1861 c-10 -7 -11 -13 -2 -27 10 -18 10 -17 11 5 0 21 2 22 17
10 14 -12 16 -12 12 0 -7 19 -20 23 -38 12z"/>
<path d="M2159 1835 c-3 -5 -3 -23 0 -39 5 -26 7 -28 20 -13 8 10 9 17 3 17
-6 0 -12 10 -14 23 -2 12 -6 18 -9 12z"/>
<path d="M2271 1832 c-20 -7 -11 -22 13 -22 31 0 56 10 56 21 0 9 -44 9 -69 1z"/>
<path d="M2030 1771 c0 -17 66 -92 74 -83 9 8 7 32 -1 31 -22 -4 -33 4 -52 34
-11 17 -21 26 -21 18z"/>
<path d="M2270 1767 c0 -18 30 -32 31 -14 0 7 4 3 9 -8 7 -19 8 -19 15 -2 9
22 7 24 -28 32 -20 6 -27 4 -27 -8z"/>
<path d="M861 1755 c1 -26 37 -106 38 -84 1 9 -8 36 -19 60 -11 25 -19 35 -19
24z"/>
<path d="M2201 1733 c-19 -21 2 -39 44 -37 23 1 35 -2 32 -10 -2 -6 -21 -11
-42 -11 -21 0 -40 -5 -42 -10 -5 -16 81 -12 100 4 17 14 24 47 9 37 -5 -3 -18
3 -28 13 -27 24 -57 31 -73 14z"/>
<path d="M2451 1712 c-26 -37 -27 -52 -2 -45 11 3 21 17 25 35 8 42 2 45 -23
10z"/>
<path d="M816 1697 c-27 -35 -33 -53 -16 -42 6 3 10 -3 10 -15 0 -12 10 -25
25 -32 39 -18 41 -1 4 31 l-34 30 22 23 23 22 11 -32 c6 -18 13 -31 16 -29 5
6 -24 77 -31 77 -3 0 -16 -15 -30 -33z"/>
<path d="M2013 1720 c3 -8 11 -32 18 -52 14 -42 24 -48 32 -18 3 11 1 18 -4
15 -4 -3 -11 5 -15 19 -3 14 -13 31 -22 38 -13 11 -14 11 -9 -2z"/>
<path d="M2673 1665 l10 -45 28 32 c33 39 37 53 10 36 -11 -7 -17 -16 -15 -20
3 -4 1 -8 -5 -8 -6 0 -13 11 -17 25 -11 45 -21 26 -11 -20z"/>
<path d="M2642 1674 c3 -11 -1 -29 -9 -40 -12 -16 -16 -17 -34 -6 -12 8 -18 9
-14 3 3 -6 2 -11 -4 -11 -5 0 -14 7 -18 15 -6 10 -19 13 -46 8 -20 -3 -37 -9
-37 -13 0 -10 111 -115 138 -129 25 -13 24 -14 41 54 10 40 1 119 -14 133 -4
4 -6 -2 -3 -14z"/>
<path d="M970 1660 c0 -5 11 -10 24 -10 14 0 28 5 31 10 4 6 -7 10 -24 10 -17
0 -31 -4 -31 -10z"/>
<path d="M2440 1624 c8 -8 22 -20 32 -25 19 -10 19 -9 3 15 -10 14 -24 26 -32
26 -13 0 -13 -3 -3 -16z"/>
<path d="M748 1603 c-20 -22 -24 -38 -7 -28 6 4 13 -1 15 -11 4 -16 73 -74 87
-74 3 0 7 9 10 20 7 27 25 25 30 -2 3 -15 5 -10 6 13 1 32 -2 37 -26 42 -17 3
-34 0 -44 -9 -23 -21 -32 -17 -25 11 5 18 2 25 -8 25 -8 0 -16 7 -18 16 -3 14
-5 14 -20 -3z"/>
<path d="M2159 1598 c0 -13 -2 -36 -4 -52 -2 -16 0 -25 4 -20 12 13 21 94 10
94 -5 0 -9 -10 -10 -22z"/>
<path d="M1410 1530 c-13 -9 -12 -13 9 -30 13 -11 29 -20 36 -20 7 0 15 -6 18
-12 3 -10 16 -7 50 10 53 27 65 41 46 53 -26 16 -42 11 -23 -8 15 -16 15 -17
-2 -24 -24 -9 -87 -11 -108 -3 -9 3 -16 13 -16 20 0 12 11 13 53 8 28 -4 50
-4 47 -2 -11 12 -96 17 -110 8z"/>
<path d="M1645 1472 c-16 -26 -49 -59 -72 -75 -25 -16 -43 -36 -43 -47 0 -16
11 -18 116 -19 l116 -2 -7 48 c-9 64 -34 123 -51 123 -8 0 -14 5 -14 10 0 21
-16 7 -45 -38z m44 -14 c1 17 21 15 21 -2 0 -7 6 -26 14 -41 20 -37 2 -68 -34
-60 -14 3 -40 6 -57 7 -18 1 -33 3 -33 4 0 1 16 21 35 45 19 24 35 51 36 59 0
10 3 8 9 -5 5 -11 9 -14 9 -7z"/>
<path d="M2112 1499 c-26 -10 -21 -29 9 -29 12 0 19 7 19 20 0 11 -1 20 -2 19
-2 0 -13 -4 -26 -10z"/>
<path d="M847 1449 c-26 -18 -46 -34 -43 -36 2 -3 28 11 58 31 29 20 48 36 43
36 -6 0 -32 -14 -58 -31z"/>
<path d="M1302 1223 c-21 -8 -2 -23 29 -23 18 0 28 4 24 10 -4 6 -11 7 -17 4
-6 -4 -13 -2 -17 3 -3 6 -12 8 -19 6z"/>
<path d="M2310 1210 c0 -5 8 -10 17 -10 9 0 25 -7 35 -17 11 -9 18 -11 18 -5
0 19 58 14 82 -7 13 -11 34 -28 47 -39 19 -14 21 -21 11 -27 -7 -5 -11 -4 -7
1 3 5 -22 25 -56 43 -34 19 -56 28 -50 19 7 -8 31 -23 53 -33 24 -11 36 -21
29 -25 -6 -4 1 -10 18 -14 15 -4 63 -21 106 -38 56 -23 82 -39 92 -57 17 -34
22 -72 11 -90 -12 -19 -17 -89 -7 -95 5 -3 9 0 8 7 0 6 1 30 2 52 1 30 4 36
11 25 21 -33 -10 -453 -35 -478 -3 -3 -5 38 -5 91 0 72 5 110 20 149 23 61 18
79 -7 22 -11 -26 -19 -79 -22 -159 l-6 -120 -13 105 c-7 58 -17 143 -22 188
-11 99 -47 237 -66 256 -7 8 -11 16 -8 18 2 3 -18 34 -45 69 -27 35 -48 66
-45 70 2 4 -8 12 -24 17 -15 6 -44 17 -64 26 -22 9 -38 12 -38 6 0 -5 7 -10
15 -10 78 0 196 -164 245 -342 24 -88 25 -121 3 -139 -9 -8 -26 -35 -38 -61
-25 -53 -35 -52 -36 1 0 20 -3 30 -6 23 -4 -11 1 -61 22 -197 2 -11 6 -41 10
-67 6 -39 5 -49 -9 -54 -9 -3 -14 -10 -11 -15 3 -4 12 -6 20 -2 16 5 19 -5 9
-31 -8 -20 -24 -20 -38 0 -11 14 -13 14 -26 -3 -8 -10 -11 -15 -6 -11 5 4 16
-2 25 -14 25 -30 58 -11 59 34 0 54 2 59 12 53 6 -4 9 -1 8 7 -2 7 4 12 12 10
8 -2 12 0 8 4 -4 4 -1 12 8 19 16 11 11 17 -64 71 -2 1 -6 27 -8 58 -4 47 -1
65 21 109 46 92 41 101 71 -137 l18 -139 -43 -39 c-51 -45 -42 -52 10 -8 30
24 40 42 54 99 10 39 22 68 26 65 4 -2 11 1 15 7 3 6 2 14 -4 18 -8 5 -7 33 3
96 30 186 13 409 -37 463 -13 15 -31 36 -39 46 -13 18 -12 19 16 12 54 -14 63
-15 92 -7 19 5 46 2 82 -11 30 -10 56 -16 59 -14 2 3 0 18 -6 34 -10 29 -10
30 36 42 26 7 52 17 57 22 13 12 -26 3 -139 -34 -75 -24 -97 -27 -153 -22 -59
6 -71 11 -117 52 l-50 45 232 -6 c130 -4 232 -3 232 2 0 17 -137 23 -385 16
-183 -6 -254 -4 -259 4 -9 14 -46 15 -46 1z m251 -63 c34 -24 69 -54 78 -67
l16 -24 -26 17 c-14 9 -28 15 -31 11 -3 -3 -9 0 -14 7 -5 8 -3 10 6 4 9 -5 11
-4 6 4 -4 6 -13 10 -20 9 -6 -2 -32 12 -56 31 -65 50 -66 51 -43 51 11 0 49
-19 84 -43z m329 -46 c0 -5 3 -16 6 -24 5 -13 0 -14 -30 -5 -39 12 -46 24 -18
31 30 8 42 7 42 -2z m-265 -732 c-4 -5 -13 -9 -21 -9 -8 0 -13 -4 -9 -9 3 -5
1 -12 -5 -16 -6 -3 -10 4 -10 17 0 13 -3 34 -7 47 l-6 25 31 -23 c18 -12 30
-27 27 -32z"/>
<path d="M2135 1151 c-29 -7 -29 -7 -7 -15 12 -4 22 -15 22 -24 1 -15 3 -14
15 2 16 21 20 47 8 45 -5 -1 -21 -4 -38 -8z"/>
<path d="M66 1091 c-44 -16 -47 -18 -30 -31 10 -8 15 -10 11 -3 -8 13 -3 18
35 27 22 5 27 2 30 -16 3 -21 4 -20 9 5 4 15 4 29 0 31 -3 2 -28 -4 -55 -13z"/>
<path d="M1854 1029 c-12 -24 -13 -34 -5 -37 9 -3 7 -10 -5 -23 -24 -27 -5
-23 31 6 l30 25 -29 0 c-28 0 -28 0 -11 26 9 14 14 28 12 31 -3 3 -13 -10 -23
-28z"/>
<path d="M2720 1043 c36 -16 266 -40 277 -29 12 12 -2 15 -82 17 -44 1 -98 6
-120 11 -22 5 -56 11 -75 13 l-35 4 35 -16z"/>
<path d="M162 990 c-53 -32 -128 -57 -155 -51 -4 0 -7 -5 -7 -13 0 -13 4 -13
27 0 16 7 39 14 52 14 13 0 53 16 88 35 35 19 72 35 83 35 11 0 34 -13 52 -29
18 -15 43 -33 54 -39 20 -11 21 -14 8 -49 -7 -21 -13 -48 -14 -61 0 -13 -7
-36 -14 -51 -12 -21 -13 -42 -6 -87 4 -32 11 -67 14 -76 3 -10 8 -25 11 -34 4
-13 9 -12 37 7 18 12 52 40 76 63 23 22 42 35 42 28 0 -17 47 14 61 39 11 21
-7 65 -37 90 -15 12 -16 11 -9 -21 10 -46 13 -50 30 -43 8 3 15 1 15 -4 0 -14
-23 -40 -42 -46 -14 -5 -18 -1 -18 15 0 16 3 18 14 9 11 -9 11 -5 2 24 -8 27
-12 31 -18 17 -3 -9 -7 -29 -7 -44 -1 -18 -16 -40 -52 -72 -54 -49 -74 -57
-65 -28 12 37 25 121 32 205 8 97 11 99 66 23 15 -21 28 -34 28 -29 0 25 -71
100 -111 118 -24 10 -60 33 -79 51 -53 48 -83 49 -158 4z m244 -149 c-7 -72
-19 -160 -33 -226 l-6 -30 -13 35 c-18 50 -17 131 2 158 8 12 12 27 9 32 -4 6
1 35 10 65 23 80 39 62 31 -34z"/>
<path d="M249 968 c-31 -57 -49 -304 -29 -383 7 -28 8 -28 9 -5 1 14 3 43 6
65 4 35 3 36 -4 10 -6 -20 -8 4 -6 75 3 112 9 140 31 140 7 0 18 9 24 21 10
17 8 21 -9 26 -24 6 -25 11 -11 47 12 32 5 34 -11 4z"/>
<path d="M2426 932 c-12 -22 -12 -37 -3 -77 8 -33 17 -50 27 -50 11 0 15 -11
15 -37 0 -20 6 -42 13 -49 16 -17 15 -29 -3 -29 -23 0 -88 64 -90 88 0 11 -7
28 -15 37 -12 14 -17 12 -50 -20 l-37 -36 24 -67 c12 -37 21 -73 18 -80 -3 -7
-1 -11 4 -7 19 11 23 -53 6 -79 -17 -26 -17 -26 13 -26 28 0 34 -7 87 -106 33
-64 52 -111 47 -116 -5 -5 -37 20 -78 63 -38 40 -88 92 -112 115 -41 39 -42
43 -25 55 15 12 18 28 18 99 -2 121 -4 140 -16 140 -6 0 -8 -9 -3 -22 4 -13 8
-63 8 -111 1 -88 1 -88 -34 -121 -19 -18 -87 -66 -150 -106 -210 -132 -239
-152 -244 -167 -3 -8 -10 -12 -15 -8 -6 3 -20 -9 -33 -26 -13 -17 -35 -37 -50
-45 -34 -18 -34 -28 -5 -91 22 -48 22 -48 62 -42 22 3 35 7 29 8 -7 0 -15 8
-18 17 -4 11 5 19 30 30 56 23 134 3 134 -35 0 -12 9 -20 28 -24 35 -7 36 -5
17 33 -13 25 -56 61 -87 72 -12 5 -10 91 3 138 11 41 19 50 73 82 l61 36 31
-47 c18 -25 48 -64 68 -86 23 -25 14 -8 -24 43 -33 46 -60 88 -60 93 0 5 11
16 25 25 32 21 25 26 198 -166 178 -198 179 -200 172 -175 -5 15 -4 17 3 6 6
-8 8 -19 6 -26 -3 -6 3 -18 12 -26 16 -13 17 -11 10 16 -8 33 -34 67 -46 60
-4 -3 -13 1 -19 8 -8 10 -7 14 4 14 8 0 12 -4 10 -8 -3 -4 4 -5 15 -2 25 7 25
19 0 33 -11 6 -20 17 -20 26 0 12 4 12 25 -2 15 -10 25 -12 25 -5 0 6 -6 11
-14 11 -22 0 -27 16 -15 44 l12 25 38 -42 c21 -23 41 -51 45 -62 4 -11 13 -25
21 -30 12 -9 10 -15 -11 -34 -25 -24 -26 -24 -46 -6 -13 12 -18 25 -14 40 3
13 2 25 -3 28 -19 12 -10 -51 11 -77 l22 -29 35 30 c19 17 52 42 74 56 82 54
82 53 57 86 l-21 29 24 16 c14 9 37 21 51 26 24 9 25 14 19 46 -4 24 -3 34 4
29 16 -9 13 11 -2 24 -8 6 -17 7 -21 3 -4 -4 -5 5 -1 20 4 15 24 46 46 69 21
23 39 46 39 51 0 5 12 0 26 -11 15 -11 30 -18 35 -15 5 3 9 -1 9 -9 0 -8 -14
-20 -31 -26 -42 -14 -42 -14 -36 9 3 11 1 20 -4 20 -5 0 -9 -7 -9 -15 0 -8 -8
-28 -18 -45 -17 -28 -22 -116 -8 -139 3 -4 -12 -18 -34 -30 -47 -26 -51 -36
-32 -80 13 -34 13 -35 -15 -55 -45 -33 -114 -98 -108 -104 2 -3 11 0 18 6 10
9 17 8 27 -1 10 -10 12 -8 6 7 -7 20 20 59 35 50 5 -3 9 1 9 9 0 7 12 20 26
27 19 10 24 19 19 35 -20 69 -19 72 24 100 22 15 38 32 34 38 -22 36 12 142
49 152 10 3 27 7 37 10 15 5 21 0 24 -17 2 -13 3 -6 2 14 -1 24 3 39 11 42 18
7 18 30 1 45 -10 8 -19 6 -34 -9 -21 -19 -21 -18 -62 11 -34 26 -42 28 -47 15
-3 -8 -4 -21 -1 -28 4 -8 6 -6 6 5 1 19 16 23 26 6 4 -6 -11 -26 -34 -45 -22
-19 -40 -38 -40 -42 3 -20 -2 -25 -11 -12 -14 20 -4 -30 16 -83 20 -54 18 -60
-36 -85 -28 -13 -50 -30 -50 -38 0 -8 -8 -14 -17 -14 -14 0 -15 2 -4 9 9 6 3
10 -20 14 -39 5 -54 -1 -21 -10 21 -5 21 -6 5 -34 -10 -16 -21 -29 -25 -29 -4
0 -32 20 -62 45 l-56 45 -21 -42 c-16 -32 -19 -46 -11 -59 9 -13 7 -18 -8 -22
-12 -3 -21 1 -25 12 -3 9 -64 76 -135 150 -124 128 -142 151 -120 151 5 0 25
13 43 30 l35 30 106 -110 c76 -79 106 -117 106 -134 0 -14 -4 -28 -10 -31 -5
-3 -10 -14 -10 -23 0 -11 6 -6 15 12 8 15 15 35 15 42 0 8 15 23 33 34 17 11
25 20 17 20 -8 0 -25 15 -37 33 -40 60 -138 271 -147 318 -2 8 -8 27 -14 42
-22 54 -24 73 -7 87 15 13 23 8 69 -43 35 -39 65 -62 95 -72 24 -8 46 -13 48
-11 2 2 -6 46 -18 97 -13 52 -23 96 -24 99 -3 18 -37 110 -41 110 -2 0 -10
-12 -18 -28z m-506 -784 c0 -22 -6 -29 -27 -34 -16 -3 -41 -9 -58 -14 -16 -4
-45 -11 -62 -14 -30 -5 -33 -3 -33 18 0 19 11 29 53 48 108 52 127 51 127 -4z
m804 11 c-9 -15 -22 -10 -27 9 -2 9 -3 5 -1 -9 2 -20 -4 -29 -31 -43 -20 -11
-41 -16 -52 -12 -15 6 -11 14 30 53 46 43 49 44 67 28 11 -10 17 -22 14 -26z"/>
<path d="M1859 168 c-1 -2 -3 -13 -4 -24 -1 -15 3 -21 14 -20 21 4 28 46 7 46
-9 0 -17 -1 -17 -2z"/>
<path d="M168 918 c-13 -18 -34 -54 -48 -80 -14 -27 -28 -48 -32 -48 -5 0 -8
-4 -8 -9 0 -4 -19 -41 -41 -80 -23 -39 -39 -74 -37 -77 3 -3 25 30 48 73 24
43 46 80 49 83 3 3 12 16 19 30 7 14 21 36 32 50 l18 25 7 -28 c4 -15 11 -27
15 -27 5 0 3 14 -3 30 -8 22 -8 38 0 60 14 39 10 38 -19 -2z"/>
<path d="M72 898 c6 -17 36 -34 44 -25 4 4 -1 14 -12 22 -23 18 -37 19 -32 3z"/>
<path d="M2961 852 c-40 -63 -40 -72 7 -70 36 1 36 1 5 5 -18 2 -33 7 -33 9 0
3 14 26 31 50 17 25 29 48 26 50 -2 3 -19 -17 -36 -44z"/>
<path d="M2494 878 c-4 -7 -3 -10 1 -5 5 4 26 -19 47 -50 l38 -58 -27 -6 c-27
-6 -27 -7 5 -8 30 -1 33 1 26 22 -12 38 -31 71 -57 95 -19 18 -27 21 -33 10z"/>
<path d="M298 859 c-10 -5 -23 -20 -29 -32 l-12 -22 25 23 c29 26 48 28 48 5
0 -9 3 -14 6 -10 7 7 -5 47 -14 47 -4 0 -15 -5 -24 -11z"/>
<path d="M2861 820 c-2 -40 41 -52 55 -15 9 22 -1 28 -24 16 -15 -8 -22 -8
-25 2 -4 8 -6 7 -6 -3z"/>
<path d="M240 785 c0 -15 11 -40 24 -56 25 -29 54 -113 63 -181 5 -30 0 -45
-21 -73 -15 -19 -32 -35 -38 -35 -7 0 -9 39 -6 118 3 64 2 108 -3 97 -4 -11
-8 -49 -9 -85 -2 -48 -4 -59 -10 -40 -18 57 -8 -11 14 -93 25 -93 46 -128 74
-120 10 2 28 -5 41 -16 13 -12 30 -21 36 -21 22 0 38 28 31 56 -7 25 -10 26
-49 20 -23 -4 -49 -14 -59 -23 -16 -14 -18 -14 -25 3 -3 11 -10 21 -15 24 -22
15 -13 57 21 103 20 26 38 42 40 36 2 -6 18 -24 35 -39 l31 -28 -20 -24 -20
-23 22 18 c15 13 23 15 28 7 4 -7 1 -16 -6 -21 -10 -6 -8 -9 9 -9 12 0 22 3
22 6 0 16 -42 73 -64 88 -23 15 -55 97 -72 184 -4 18 -11 35 -15 38 -5 3 -9
10 -9 16 0 7 6 6 15 -2 27 -23 15 2 -15 32 -16 15 -30 35 -30 42 0 8 -4 18
-10 21 -6 4 -10 -5 -10 -20z"/>
<path d="M1471 754 c-25 -32 -28 -52 -5 -29 9 9 23 14 31 11 8 -3 17 -6 19 -6
2 0 4 -11 4 -25 0 -30 -25 -43 -51 -26 -27 16 -23 5 12 -40 l31 -40 24 52 c13
28 24 57 24 64 0 7 -15 24 -34 39 l-35 26 -20 -26z"/>
<path d="M1707 738 c-8 -13 -28 -45 -45 -73 -27 -45 -92 -179 -92 -192 0 -10
173 152 202 191 39 50 37 49 -57 -43 -56 -54 -79 -71 -85 -62 -7 12 39 104 75
151 14 17 27 50 20 50 -3 0 -11 -10 -18 -22z"/>
<path d="M2340 746 c0 -5 12 -54 27 -109 18 -68 29 -94 33 -81 7 18 3 41 -20
119 -12 39 -40 89 -40 71z"/>
<path d="M2870 744 c0 -6 12 -29 26 -50 15 -21 44 -72 65 -112 22 -40 39 -68
39 -61 0 29 -129 251 -130 223z"/>
<path d="M1179 708 c-20 -37 -6 -158 25 -222 15 -31 32 -56 37 -56 5 0 9 -6 9
-13 0 -13 105 -87 124 -87 6 0 -12 14 -39 31 -28 17 -65 50 -83 74 -60 78 -88
201 -62 269 12 32 5 34 -11 4z"/>
<path d="M1786 602 c-4 -12 -23 -43 -42 -67 -31 -41 -35 -62 -6 -33 7 7 12 8
12 2 0 -5 12 15 26 44 14 29 23 58 21 65 -2 7 -7 2 -11 -11z"/>
<path d="M80 483 c-8 -3 -25 -16 -39 -29 l-24 -23 36 -17 c20 -10 40 -26 43
-37 9 -30 17 -12 9 24 -5 20 -10 27 -15 19 -6 -10 -12 -10 -31 0 l-23 13 30
23 c16 13 32 24 36 24 4 0 10 -24 14 -52 4 -29 9 -47 12 -40 2 7 1 33 -3 58
-6 43 -14 49 -45 37z"/>
<path d="M2716 361 c-10 -16 3 -51 20 -51 18 0 18 21 1 45 -10 12 -16 15 -21
6z"/>
<path d="M2020 313 c0 -11 97 -163 104 -163 4 0 -89 159 -99 168 -3 3 -5 1 -5
-5z"/>
<path d="M2720 25 c-24 -14 -24 -14 19 -15 24 0 42 1 40 3 -2 1 -11 8 -19 14
-11 9 -21 8 -40 -2z"/>
</g>
</svg>
